<svg xmlns="http://www.w3.org/2000/svg" viewBox="0 0 400 560">
  <!-- Mendoza Province — Natural Earth data (public domain), 129 pts -->
  <path
    d="M 67.4,148.4 L 58.4,136.7 L 60.0,129.6 L 58.2,124.8 L 64.5,120.7 L 68.3,110.2 L 60.4,105.4 L 54.2,97.7 L 51.9,85.9 L 52.9,82.7 L 55.9,82.4 L 52.7,73.0 L 46.1,67.5 L 45.2,59.4 L 60.1,57.1 L 70.0,58.6 L 98.8,54.3 L 101.6,52.1 L 103.7,41.9 L 118.2,35.8 L 132.3,35.9 L 142.0,27.1 L 146.4,28.1 L 156.4,38.0 L 165.7,37.9 L 168.9,61.4 L 186.7,61.3 L 213.4,44.6 L 224.3,44.0 L 233.9,39.4 L 247.1,37.2 L 264.2,52.6 L 272.5,53.8 L 297.1,50.7 L 303.8,54.7 L 306.6,66.9 L 310.3,69.9 L 316.0,90.0 L 321.9,99.8 L 318.8,113.8 L 321.4,120.1 L 322.1,142.0 L 325.6,160.1 L 337.5,177.0 L 345.7,197.0 L 353.4,202.3 L 362.1,217.5 L 361.0,228.3 L 357.4,229.0 L 355.4,232.4 L 356.2,246.4 L 359.3,250.3 L 363.0,267.3 L 367.2,271.1 L 380.3,295.2 L 379.6,301.8 L 384.0,313.2 L 382.1,320.0 L 384.0,322.5 L 382.6,346.7 L 374.7,377.0 L 373.9,392.3 L 226.7,392.3 L 223.5,394.2 L 222.5,403.9 L 225.8,417.3 L 226.4,533.0 L 210.3,531.3 L 203.2,523.1 L 187.7,521.2 L 180.6,516.3 L 160.0,515.5 L 156.8,513.8 L 153.1,504.0 L 144.7,499.2 L 131.3,496.2 L 110.7,498.4 L 95.1,492.8 L 84.9,482.4 L 87.4,479.1 L 87.3,470.3 L 76.7,464.2 L 72.3,456.1 L 62.2,447.6 L 53.6,444.9 L 44.8,426.0 L 37.4,426.4 L 34.1,421.7 L 35.9,410.4 L 29.4,404.0 L 33.9,396.5 L 31.0,389.5 L 33.6,384.5 L 30.3,383.7 L 30.3,380.5 L 36.0,375.7 L 30.2,361.6 L 31.4,347.7 L 25.7,336.3 L 29.6,334.3 L 25.4,330.4 L 17.7,329.0 L 16.0,325.5 L 19.3,320.9 L 33.4,317.1 L 36.3,297.8 L 43.3,283.8 L 39.7,279.0 L 45.5,274.5 L 47.7,264.6 L 62.2,249.1 L 63.1,238.0 L 69.3,236.0 L 76.3,237.4 L 83.8,232.8 L 79.7,224.3 L 81.3,210.3 L 80.4,207.9 L 76.5,207.7 L 76.0,191.1 L 80.9,187.0 L 77.7,181.2 L 79.2,171.7 L 82.6,169.5 L 87.5,155.6 L 85.1,147.5 L 80.1,143.9 L 73.7,143.3 L 67.4,148.4 Z"
    fill="#161c2a"
    stroke="#c9a84c"
    stroke-width="2"
    stroke-linejoin="round"
  />
</svg>